Coordinates
version=1
nRows=6
nColumns=107
inDegrees=yes

Units are S.I. units (second, meters, Newtons, ...)
If the header above contains a line with 'inDegrees', this indicates whether rotational values are in degrees (yes) or radians (no).

endheader
time	sternoclavicular_r2	sternoclavicular_r3	unrotscap_r3	unrotscap_r2	acromioclavicular_r2	acromioclavicular_r3	acromioclavicular_r1	unrothum_r1	unrothum_r3	unrothum_r2	elv_angle	shoulder_elv	shoulder1_r2	shoulder_rot	elbow_flexion	pro_sup	deviation	flexion	proximal_distal_r1	proximal_distal_r3	cmc_flexion	cmc_abduction	mp_flexion	ip_flexion	mcp2_flexion	mcp2_abduction	pm2_flexion	md2_flexion	mcp3_flexion	mcp3_abduction	pm3_flexion	md3_flexion	mcp4_flexion	mcp4_abduction	pm4_flexion	md4_flexion	mcp5_flexion	mcp5_abduction	pm5_flexion	md5_flexion	bicpt_tx	bicpt_ty	bicpt_tz	bicpt2_tx	bicpt2_ty	bicpt2_tz	ptpt_tx	ptpt_ty	ptpt_tz	FCUpt_tx	FCUpt_ty	FCUpt_tz	EDCpt_tx	EDCpt_ty	EDCpt_tz	APLpt_tx	APLpt_ty	APLpt_tz	FPLpt_tx	FPLpt_ty	FPLpt_tz	FPLpt2_tx	FPLpt2_ty	FPLpt2_tz	PEC1pt2_tx	PEC1pt2_ty	PEC1pt2_tz	PEC1pt3_tx	PEC1pt3_ty	PEC1pt3_tz	PEC2pt2_tx	PEC2pt2_ty	PEC2pt2_tz	PEC2pt3_tx	PEC2pt3_ty	PEC2pt3_tz	PEC3pt2_tx	PEC3pt2_ty	PEC3pt2_tz	PEC3pt3_tx	PEC3pt3_ty	PEC3pt3_tz	DELT2pt2a_tx	DELT2pt2a_ty	DELT2pt2a_tz	DELT2pt2_tx	DELT2pt2_ty	DELT2pt2_tz	LAT1pt2_tx	LAT1pt2_ty	LAT1pt2_tz	LAT1pt3_tx	LAT1pt3_ty	LAT1pt3_tz	LAT2pt2_tx	LAT2pt2_ty	LAT2pt2_tz	LAT2pt3_tx	LAT2pt3_ty	LAT2pt3_tz	LAT3pt2_tx	LAT3pt2_ty	LAT3pt2_tz	LAT3pt3_tx	LAT3pt3_ty	LAT3pt3_tz
      1.80000000	     -0.32894692	      0.13932639	     -0.13932639	      0.32894692	     -0.06660506	      0.53827866	      0.24195255	     -0.24195255	     -0.53827866	      0.06660506	     97.71917956	     77.88110692	     -1.70552143	    -17.57774233	     31.17596159	     61.44516511	      0.25676137	     -0.15280957	      0.29450039	     -0.07640479	     29.29628303	     -6.64105679	    -19.03835385	      3.90886916	     -5.53602102	     10.72591130	     17.89774374	      6.65764556	      3.95513181	      2.68514896	     15.64761351	     17.69275099	     -1.89171989	     -3.40772941	     17.27763591	     23.70921278	     -6.65794016	    -13.78478224	     27.44711078	      5.19016833	      0.00093120	     -0.03117324	     -0.00487556	      0.01608841	     -0.01866910	     -0.00485832	      0.00300990	     -0.06783571	     -0.00499974	      0.01001028	     -0.18298366	     -0.00036549	     -0.00737340	      0.00232358	     -0.00013216	      0.00013679	      0.00005472	      0.00027358	      0.00017509	      0.00052528	      0.00029547	     -0.00000755	     -0.00025559	     -0.00030671	      0.00255277	      0.00895633	      0.00623049	     -0.00835059	      0.02016257	     -0.01912415	      0.00255277	      0.00895633	      0.00623049	      0.00056248	      0.01869148	     -0.00982168	      0.00401229	      0.00498050	      0.01612278	      0.00000000	      0.00811435	      0.00000000	     -0.00731218	     -0.03379178	     -0.00669246	      0.01233925	     -0.00035873	     -0.00250452	     -0.00090861	      0.01523010	     -0.00623049	      0.00250950	      0.02197980	     -0.01817227	     -0.00610069	      0.01319653	     -0.00558148	     -0.01272059	      0.02786415	     -0.03119574	     -0.02388356	      0.01475416	     -0.00748525	     -0.01583584	      0.03219088	     -0.03898385
      1.83333333	     -0.32864775	      0.13919967	     -0.13919967	      0.32864775	     -0.06654448	      0.53778911	      0.24173250	     -0.24173250	     -0.53778911	      0.06654448	     97.84508031	     77.81027511	     -1.70771881	    -18.03123768	     31.11768106	     62.08080895	      0.24747384	     -0.14782100	      0.28572885	     -0.07391050	     29.94171009	     -6.55354926	    -20.37429536	      4.34339283	     -8.51200389	     10.25417086	     17.22924238	      4.99406879	      1.20911722	      2.01743955	     14.59919629	     16.84113467	     -3.39769213	     -3.68607587	     14.31010790	     22.23362862	     -7.75380801	    -13.75092932	     23.44346474	      5.11119954	      0.00092928	     -0.03116656	     -0.00487448	      0.01605796	     -0.01865327	     -0.00477107	      0.00296293	     -0.06786608	     -0.00505094	      0.01007854	     -0.18296651	     -0.00035958	     -0.00744968	      0.00235371	     -0.00014422	      0.00013294	      0.00005318	      0.00026589	      0.00017017	      0.00051050	      0.00028716	     -0.00000847	     -0.00025049	     -0.00030059	      0.00255045	      0.00894819	      0.00622483	     -0.00834300	      0.02014423	     -0.01910676	      0.00255045	      0.00894819	      0.00622483	      0.00056196	      0.01867448	     -0.00981275	      0.00400965	      0.00497597	      0.01611651	      0.00000000	      0.00809948	      0.00000000	     -0.00730553	     -0.03376104	     -0.00668013	      0.01261430	     -0.00037225	     -0.00264576	     -0.00090779	      0.01521624	     -0.00622483	      0.00250722	      0.02195981	     -0.01815575	     -0.00609514	      0.01318453	     -0.00557641	     -0.01270902	      0.02783881	     -0.03116736	     -0.02386184	      0.01474074	     -0.00747844	     -0.01582144	      0.03216161	     -0.03894840
      1.86666667	     -0.32971758	      0.13965281	     -0.13965281	      0.32971758	     -0.06676110	      0.53953975	      0.24251941	     -0.24251941	     -0.53953975	      0.06676110	     97.72915693	     78.06356815	     -1.70569556	    -17.01662289	     31.01251452	     62.06293551	      0.26106817	     -0.12698273	      0.29851968	     -0.06349137	     30.64139023	     -6.26602983	    -21.61339702	      6.41069970	     -9.39027353	      9.97517201	     18.26222918	     -2.34848374	      0.28182880	      1.42567182	     13.96940566	     14.86640950	     -2.06419264	     -3.96732345	      9.44373551	     20.80334561	     -5.80465077	    -13.72135326	     16.10878234	      5.23215426	      0.00092580	     -0.03115451	     -0.00487254	      0.01605883	     -0.01862470	     -0.00477353	      0.00296425	     -0.06786522	     -0.00504950	      0.01007662	     -0.18296699	     -0.00035975	     -0.00744753	      0.00235286	     -0.00014388	      0.00011642	      0.00004657	      0.00023284	      0.00014901	      0.00044704	      0.00025146	     -0.00000938	     -0.00024443	     -0.00029331	      0.00255875	      0.00897732	      0.00624509	     -0.00837016	      0.02020981	     -0.01916896	      0.00255875	      0.00897732	      0.00624509	      0.00056379	      0.01873527	     -0.00984469	      0.00401908	      0.00499217	      0.01613889	      0.00000000	      0.00815270	      0.00000000	     -0.00732931	     -0.03387094	     -0.00672428	      0.01199517	     -0.00034213	     -0.00233444	     -0.00091074	      0.01526578	     -0.00624509	      0.00251538	      0.02203129	     -0.01821485	     -0.00611498	      0.01322745	     -0.00559456	     -0.01275039	      0.02792943	     -0.03126882	     -0.02393951	      0.01478872	     -0.00750278	     -0.01587294	      0.03226630	     -0.03907519
      1.90000000	     -0.32692833	      0.13847141	     -0.13847141	      0.32692833	     -0.06619634	      0.53497550	      0.24046781	     -0.24046781	     -0.53497550	      0.06619634	     98.24294574	     77.40318732	     -1.71466287	    -19.88395328	     31.14839908	     64.72420556	      0.23793493	     -0.14135807	      0.27657341	     -0.07067903	     30.82249304	     -6.22106970	    -21.67202805	      5.23252050	    -10.18032565	      9.88058848	     17.96404243	     -4.65012227	     -0.43638306	      1.11197609	     12.27111981	     14.35267365	     -2.50021568	     -3.95135278	      7.32270755	     21.02832870	     -6.90965416	    -13.69733765	     14.71283879	      5.18288810	      0.00093029	     -0.03117008	     -0.00487505	      0.01592145	     -0.01866162	     -0.00440220	      0.00276761	     -0.06799237	     -0.00526388	      0.01036376	     -0.18289397	     -0.00033179	     -0.00776689	      0.00248032	     -0.00019670	      0.00012790	      0.00005116	      0.00025579	      0.00016371	      0.00049112	      0.00027626	     -0.00000960	     -0.00024277	     -0.00029133	      0.00253711	      0.00890137	      0.00619226	     -0.00829935	      0.02003884	     -0.01900680	      0.00253711	      0.00890137	      0.00619226	      0.00055902	      0.01857678	     -0.00976141	      0.00399446	      0.00494994	      0.01608023	      0.00000000	      0.00801433	      0.00000000	     -0.00726731	     -0.03358441	     -0.00660946	      0.01370947	     -0.00042837	     -0.00325768	     -0.00090304	      0.01513664	     -0.00619226	      0.00249410	      0.02184492	     -0.01806076	     -0.00606325	      0.01311555	     -0.00554723	     -0.01264253	      0.02769316	     -0.03100430	     -0.02373700	      0.01466362	     -0.00743931	     -0.01573866	      0.03199334	     -0.03874463
      1.93333333	     -0.32717409	      0.13857550	     -0.13857550	      0.32717409	     -0.06624610	      0.53537767	      0.24064858	     -0.24064858	     -0.53537767	      0.06624610	     98.23048087	     77.46137473	     -1.71444532	    -19.73048082	     31.08113958	     64.92744235	      0.23869245	     -0.14249684	      0.27730557	     -0.07124842	     30.82068350	     -6.14791039	    -21.67463356	      5.23446361	    -10.16367891	      9.89388438	     17.96236771	     -4.65995404	     -0.50769568	      1.08677981	     12.24149025	     14.34159211	     -2.57569684	     -3.96793324	      7.27032127	     21.01195101	     -7.01476524	    -13.70812108	     14.65047885	      5.16664631	      0.00092807	     -0.03116237	     -0.00487381	      0.01591020	     -0.01864334	     -0.00437337	      0.00275259	     -0.06800208	     -0.00528025	      0.01038579	     -0.18288829	     -0.00032940	     -0.00779127	      0.00249015	     -0.00020092	      0.00012879	      0.00005152	      0.00025758	      0.00016485	      0.00049455	      0.00027819	     -0.00000960	     -0.00024279	     -0.00029134	      0.00253901	      0.00890807	      0.00619692	     -0.00830559	      0.02005391	     -0.01902109	      0.00253901	      0.00890807	      0.00619692	      0.00055944	      0.01859075	     -0.00976875	      0.00399663	      0.00495366	      0.01608544	      0.00000000	      0.00802647	      0.00000000	     -0.00727277	     -0.03360966	     -0.00661955	      0.01362024	     -0.00042367	     -0.00320520	     -0.00090372	      0.01514801	     -0.00619692	      0.00249598	      0.02186134	     -0.01807434	     -0.00606781	      0.01312541	     -0.00555140	     -0.01265204	      0.02771398	     -0.03102761	     -0.02375484	      0.01467464	     -0.00744491	     -0.01575049	      0.03201740	     -0.03877375
      1.96666667	     -0.32737858	      0.13866212	     -0.13866212	      0.32737858	     -0.06628750	      0.53571229	      0.24079899	     -0.24079899	     -0.53571229	      0.06628750	     98.19856415	     77.50978962	     -1.71388827	    -19.46919797	     31.07020995	     64.48005424	      0.23968048	     -0.13372350	      0.27826032	     -0.06686175	     30.74274602	     -5.50647942	    -21.58655126	      3.14012621	     -9.64593277	      9.58632621	     17.76847894	     -8.32731546	     -0.50505243	      0.58103887	     10.84387723	     13.44247614	     -1.72801992	     -4.13822586	      3.05682205	     20.82391943	     -7.34879397	    -13.68683963	     11.30795645	      5.15448802	      0.00092771	     -0.03116112	     -0.00487360	      0.01593467	     -0.01864037	     -0.00443664	      0.00278565	     -0.06798071	     -0.00524421	      0.01033734	     -0.18290074	     -0.00033456	     -0.00773759	      0.00246854	     -0.00019171	      0.00012184	      0.00004874	      0.00024369	      0.00015596	      0.00046788	      0.00026318	     -0.00000950	     -0.00024351	     -0.00029221	      0.00254060	      0.00891363	      0.00620079	     -0.00831078	      0.02006644	     -0.01903298	      0.00254060	      0.00891363	      0.00620079	      0.00055979	      0.01860237	     -0.00977485	      0.00399844	      0.00495676	      0.01608977	      0.00000000	      0.00803658	      0.00000000	     -0.00727731	     -0.03363066	     -0.00662793	      0.01346811	     -0.00041569	     -0.00311610	     -0.00090428	      0.01515748	     -0.00620079	      0.00249754	      0.02187500	     -0.01808563	     -0.00607161	      0.01313361	     -0.00555487	     -0.01265994	      0.02773130	     -0.03104700	     -0.02376969	      0.01468381	     -0.00744956	     -0.01576034	      0.03203741	     -0.03879799
